<svg xmlns="http://www.w3.org/2000/svg" viewBox="0 0 475.23 50.58"><g data-name="Layer 2"><g data-name="Layer 1"><path d="M70.14 13.51L52.87 0 41.39 11.48 29.94 0l-17 12.68L0 49.51h6.92l17.79-13.68 14.75 14.75h3.86l14.75-14.75 17.79 13.68h6.92zM31.25 6.93l8.16 8.17v29.83L27 32.52zm12.12 8.17L51.51 7l4.27 25.57-12.41 12.36zM5.59 45.54l10.67-30.38L27.22 7l-4.16 25.11zm54.13-13.43l-4.16-25 11.22 8.78 10.41 29.65zM107 10.08a.94.94 0 01.9-.9h3.1a.93.93 0 01.89.9v31.16a.92.92 0 01-.89.89h-3.11a.93.93 0 01-.9-.89zM124.84 9.56a.88.88 0 01.89-.85h1.18l20.43 23.63V10.08a.89.89 0 01.89-.9h3a.93.93 0 01.89.9v31.68a.88.88 0 01-.89.84H150l-20.36-24.29v22.93a.89.89 0 01-.89.89h-3a.92.92 0 01-.89-.89zM165.1 9.56a.89.89 0 01.9-.85h1.17l20.44 23.63V10.08a.9.9 0 01.9-.9h3a.93.93 0 01.89.9v31.68a.88.88 0 01-.89.84h-1.22l-20.38-24.29v22.93a.89.89 0 01-.9.89h-3a.93.93 0 01-.9-.89zM219.87 8.71a16.95 16.95 0 11-16.9 17 16.91 16.91 0 0116.9-17zm0 29.19a12.24 12.24 0 10-12.2-12.2 12.24 12.24 0 0012.2 12.2zM241.78 10.41a.83.83 0 01.8-1.23h3.34a.91.91 0 01.8.52L257.08 33h.28l10.36-23.3a.86.86 0 01.8-.52h3.34a.83.83 0 01.8 1.23l-14.45 31.68a.89.89 0 01-.8.51h-.47a1 1 0 01-.8-.51zM273.72 40.91l14.45-31.68a1.12 1.12 0 01.8-.52h.47a1.1 1.1 0 01.8.52l14.36 31.68a.83.83 0 01-.8 1.22h-3a1.1 1.1 0 01-1.09-.7L296.83 35h-15.39c-.94 2.16-1.93 4.28-2.87 6.45a1.18 1.18 0 01-1.08.7h-3a.83.83 0 01-.77-1.24zm21.32-10L289.25 18H289l-5.74 12.9zM316.8 13.61h-7.68a.9.9 0 01-.89-.9v-2.63a.9.9 0 01.89-.9h20.25a.9.9 0 01.89.9v2.63a.9.9 0 01-.89.9h-7.68v27.63a.92.92 0 01-.89.89h-3.11a.92.92 0 01-.89-.89zM339.12 10.08a.9.9 0 01.9-.9h18.83a.89.89 0 01.89.9v2.63a.89.89 0 01-.89.9H344v9.6h12.57a.93.93 0 01.9.89v2.64a.89.89 0 01-.9.89H344v10.13h14.88a.89.89 0 01.89.89v2.59a.89.89 0 01-.89.89H340a.89.89 0 01-.9-.89zM376.07 9.42a1 1 0 01.85-.71h.75a1 1 0 01.8.52l9.84 24.05h.19l9.79-24a.9.9 0 01.8-.52h.75a1 1 0 01.85.71l5.79 31.63a.8.8 0 01-.85 1.08h-3.06a1 1 0 01-.89-.66l-3.49-21h-.14l-8.47 21.66a.8.8 0 01-.8.51h-.85a.86.86 0 01-.8-.51l-8.52-21.66h-.19l-3.39 21a.91.91 0 01-.84.66h-3.06a.85.85 0 01-.9-1.08zM413.69 40.91l14.45-31.68a1.1 1.1 0 01.8-.52h.47a1.1 1.1 0 01.8.52l14.36 31.68a.83.83 0 01-.8 1.22h-3a1.1 1.1 0 01-1.08-.7L436.8 35h-15.39c-.94 2.16-1.93 4.28-2.87 6.45a1.19 1.19 0 01-1.09.7h-3a.83.83 0 01-.76-1.24zm21.32-10L429.22 18H429l-5.75 12.9zM453.06 10.08a.89.89 0 01.89-.9h10.73a10.5 10.5 0 11.05 21h-6.83v11.06a.92.92 0 01-.89.89H454a.89.89 0 01-.89-.89zm11.34 15.48a6 6 0 006-6 5.8 5.8 0 00-6-5.65h-6.5v11.65z"></path></g></g></svg>